<?xml version="1.0" encoding="UTF-8" standalone="no"?>
<!DOCTYPE svg PUBLIC "-//W3C//DTD SVG 1.1//EN" "http://www.w3.org/Graphics/SVG/1.1/DTD/svg11.dtd">
<svg version="1.1" xmlns="http://www.w3.org/2000/svg" xmlns:xlink="http://www.w3.org/1999/xlink" preserveAspectRatio="xMidYMid meet" viewBox="0 0 640 640" width="640" height="640"><defs><path d="M456.02 294.73C456.02 391.17 386.16 469.46 300.11 469.46C214.06 469.46 144.19 391.17 144.19 294.73C144.19 198.29 214.06 120 300.11 120C386.16 120 456.02 198.29 456.02 294.73Z" id="d1y6vdyDDz"></path><path d="M300.11 237.74C300.11 273.35 276.5 302.26 247.42 302.26C218.34 302.26 194.73 273.35 194.73 237.74C194.73 202.13 218.34 173.23 247.42 173.23C276.5 173.23 300.11 202.13 300.11 237.74Z" id="bgRxnY8g4"></path><path d="M424.3 371.08C424.3 426.56 368.65 471.61 300.11 471.61C231.56 471.61 175.91 426.56 175.91 371.08C175.91 315.59 231.56 270.54 300.11 270.54C368.65 270.54 424.3 315.59 424.3 371.08Z" id="a17vnZdjcG"></path><path d="M401.18 237.74C401.18 273.35 377.57 302.26 348.49 302.26C319.42 302.26 295.81 273.35 295.81 237.74C295.81 202.13 319.42 173.23 348.49 173.23C377.57 173.23 401.18 202.13 401.18 237.74Z" id="ayGGKd6De"></path><path d="M261.4 237.74C261.4 247.24 253.69 254.95 244.19 254.95C234.7 254.95 226.99 247.24 226.99 237.74C226.99 228.25 234.7 220.54 244.19 220.54C253.69 220.54 261.4 228.25 261.4 237.74Z" id="a36QLOXfVH"></path><path d="M368.49 237.74C368.49 247.24 360.79 254.95 351.29 254.95C341.8 254.95 334.09 247.24 334.09 237.74C334.09 228.25 341.8 220.54 351.29 220.54C360.79 220.54 368.49 228.25 368.49 237.74Z" id="b10wjy45z6"></path><path d="M246.4 233.74C246.4 237.72 243.17 240.95 239.19 240.95C235.22 240.95 231.99 237.72 231.99 233.74C231.99 229.77 235.22 226.54 239.19 226.54C243.17 226.54 246.4 229.77 246.4 233.74Z" id="aD1ZAUeh3"></path><path d="M356.4 231.74C356.4 235.72 353.17 238.95 349.19 238.95C345.22 238.95 341.99 235.72 341.99 231.74C341.99 227.77 345.22 224.54 349.19 224.54C353.17 224.54 356.4 227.77 356.4 231.74Z" id="f2GTnxL2tb"></path><path d="M312.78 274.91L298.81 253.95L278.38 274.91L312.78 274.91Z" id="e46eCJJhpg"></path><path d="M219.38 424.57C235.83 426.02 248.37 436.42 247.36 447.76C246.36 459.11 232.19 467.14 215.75 465.69C199.3 464.23 186.76 453.84 187.77 442.49C188.77 431.15 202.94 423.11 219.38 424.57Z" id="a4TmazsyCx"></path><path d="M371.65 424.4C388.16 424.2 401.67 433.28 401.81 444.67C401.95 456.06 388.66 465.48 372.16 465.68C355.65 465.88 342.13 456.8 341.99 445.41C341.85 434.02 355.14 424.6 371.65 424.4Z" id="a3ghlOcHbs"></path></defs><g><g><g><use xlink:href="#d1y6vdyDDz" opacity="1" fill="#000000" fill-opacity="1"></use><g><use xlink:href="#d1y6vdyDDz" opacity="1" fill-opacity="0" stroke="#4c2567" stroke-width="0" stroke-opacity="1"></use></g></g><g><use xlink:href="#bgRxnY8g4" opacity="1" fill="#ffffff" fill-opacity="1"></use></g><g><use xlink:href="#a17vnZdjcG" opacity="1" fill="#ffffff" fill-opacity="1"></use></g><g><use xlink:href="#ayGGKd6De" opacity="1" fill="#ffffff" fill-opacity="1"></use></g><g><use xlink:href="#a36QLOXfVH" opacity="1" fill="#000000" fill-opacity="1"></use><g><use xlink:href="#a36QLOXfVH" opacity="1" fill-opacity="0" stroke="#000000" stroke-width="0" stroke-opacity="1"></use></g></g><g><use xlink:href="#b10wjy45z6" opacity="1" fill="#000000" fill-opacity="1"></use></g><g><use xlink:href="#aD1ZAUeh3" opacity="1" fill="#ffffff" fill-opacity="1"></use><g><use xlink:href="#aD1ZAUeh3" opacity="1" fill-opacity="0" stroke="#000000" stroke-width="0" stroke-opacity="1"></use></g></g><g><use xlink:href="#f2GTnxL2tb" opacity="1" fill="#ffffff" fill-opacity="1"></use><g><use xlink:href="#f2GTnxL2tb" opacity="1" fill-opacity="0" stroke="#000000" stroke-width="0" stroke-opacity="1"></use></g></g><g><use xlink:href="#e46eCJJhpg" opacity="1" fill="#ff9f00" fill-opacity="1"></use><g><use xlink:href="#e46eCJJhpg" opacity="1" fill-opacity="0" stroke="#19101e" stroke-width="0" stroke-opacity="1"></use></g></g><g><use xlink:href="#a4TmazsyCx" opacity="1" fill="#ffa800" fill-opacity="1"></use></g><g><use xlink:href="#a3ghlOcHbs" opacity="1" fill="#ffa800" fill-opacity="1"></use></g></g></g></svg>