<?xml version="1.0" encoding="UTF-8" standalone="no"?>
<!DOCTYPE svg PUBLIC "-//W3C//DTD SVG 1.1//EN" "http://www.w3.org/Graphics/SVG/1.1/DTD/svg11.dtd">
<svg version="1.1" xmlns="http://www.w3.org/2000/svg" xmlns:xlink="http://www.w3.org/1999/xlink" preserveAspectRatio="xMidYMid meet" viewBox="0 0 640 640" width="640" height="640"><defs><path d="M525.62 284.61C525.62 383.21 433.48 463.26 320 463.26C206.52 463.26 114.38 383.21 114.38 284.61C114.38 186.01 206.52 105.96 320 105.96C433.48 105.96 525.62 186.01 525.62 284.61Z" id="a31yqd2tZW"></path><path d="M283.6 157.3C283.6 180.56 257.92 199.44 226.29 199.44C194.67 199.44 168.99 180.56 168.99 157.3C168.99 134.05 194.67 115.17 226.29 115.17C257.92 115.17 283.6 134.05 283.6 157.3Z" id="bKKHyGSO8"></path><path d="M217.3 213.93C217.3 244.01 191.63 268.43 160 268.43C128.37 268.43 102.7 244.01 102.7 213.93C102.7 183.86 128.37 159.44 160 159.44C191.63 159.44 217.3 183.86 217.3 213.93Z" id="b2GrSgUvY7"></path><path d="M196.85 280.56C196.85 304.75 171.18 324.38 139.55 324.38C107.92 324.38 82.25 304.75 82.25 280.56C82.25 256.38 107.92 236.74 139.55 236.74C171.18 236.74 196.85 256.38 196.85 280.56Z" id="a69mN3vAdU"></path><path d="M341.12 135.96C341.12 166.03 315.45 190.45 283.82 190.45C252.19 190.45 226.52 166.03 226.52 135.96C226.52 105.88 252.19 81.46 283.82 81.46C315.45 81.46 341.12 105.88 341.12 135.96Z" id="agjgsuajt"></path><path d="M419.1 120.79C419.1 144.97 394.18 164.61 363.48 164.61C332.79 164.61 307.87 144.97 307.87 120.79C307.87 96.6 332.79 76.97 363.48 76.97C394.18 76.97 419.1 96.6 419.1 120.79Z" id="d2IKsMgtgg"></path><path d="M469.66 155.62C469.66 179.8 443.99 199.44 412.36 199.44C380.73 199.44 355.06 179.8 355.06 155.62C355.06 131.43 380.73 111.8 412.36 111.8C443.99 111.8 469.66 131.43 469.66 155.62Z" id="d52HQvboT4"></path><path d="M536.85 192.92C536.85 217.11 511.18 236.74 479.55 236.74C447.92 236.74 422.25 217.11 422.25 192.92C422.25 168.74 447.92 149.1 479.55 149.1C511.18 149.1 536.85 168.74 536.85 192.92Z" id="b1DyDjV1lC"></path><path d="M536.85 242.58C536.85 260.57 516.72 275.17 491.91 275.17C467.1 275.17 446.97 260.57 446.97 242.58C446.97 224.6 467.1 210 491.91 210C516.72 210 536.85 224.6 536.85 242.58Z" id="d5DRgGS48J"></path><path d="M549.21 309.89C549.21 334.69 529.07 354.83 504.27 354.83C479.46 354.83 459.33 334.69 459.33 309.89C459.33 285.08 479.46 264.94 504.27 264.94C529.07 264.94 549.21 285.08 549.21 309.89Z" id="bLrQoRcz0"></path><path d="M201.8 340C201.8 364.81 181.66 384.94 156.85 384.94C132.05 384.94 111.91 364.81 111.91 340C111.91 315.19 132.05 295.06 156.85 295.06C181.66 295.06 201.8 315.19 201.8 340Z" id="bB0QqNVpw"></path><path d="M213.93 401.57C213.93 426.38 193.79 446.52 168.99 446.52C144.18 446.52 124.04 426.38 124.04 401.57C124.04 376.77 144.18 356.63 168.99 356.63C193.79 356.63 213.93 376.77 213.93 401.57Z" id="egXN2Q34u"></path><path d="M516.74 368.09C516.74 383.59 505.61 396.18 491.91 396.18C478.21 396.18 467.08 383.59 467.08 368.09C467.08 352.59 478.21 340 491.91 340C505.61 340 516.74 352.59 516.74 368.09Z" id="bxJuf6Jld"></path><path d="M391.69 429.89C391.69 454.69 371.55 474.83 346.74 474.83C321.94 474.83 301.8 454.69 301.8 429.89C301.8 405.08 321.94 384.94 346.74 384.94C371.55 384.94 391.69 405.08 391.69 429.89Z" id="b1qfgoMYIc"></path><path d="M446.97 426.74C446.97 446.9 430.65 463.26 410.56 463.26C390.47 463.26 374.16 446.9 374.16 426.74C374.16 406.59 390.47 390.22 410.56 390.22C430.65 390.22 446.97 406.59 446.97 426.74Z" id="aMvaDM69T"></path><path d="M508.99 406.29C508.99 431.1 488.85 451.24 464.04 451.24C439.24 451.24 419.1 431.1 419.1 406.29C419.1 381.49 439.24 361.35 464.04 361.35C488.85 361.35 508.99 381.49 508.99 406.29Z" id="bjP87slN1"></path><path d="M328.76 441.12C328.76 465.93 308.63 486.07 283.82 486.07C259.02 486.07 238.88 465.93 238.88 441.12C238.88 416.32 259.02 396.18 283.82 396.18C308.63 396.18 328.76 416.32 328.76 441.12Z" id="bcrrgpG31"></path><path d="M281.12 418.31C281.12 443.12 260.98 463.26 236.18 463.26C211.37 463.26 191.24 443.12 191.24 418.31C191.24 393.51 211.37 373.37 236.18 373.37C260.98 373.37 281.12 393.51 281.12 418.31Z" id="aodjxAzce"></path><path d="M293.37 248.99C293.37 266.41 279.22 280.56 261.8 280.56C244.37 280.56 230.22 266.41 230.22 248.99C230.22 231.56 244.37 217.42 261.8 217.42C279.22 217.42 293.37 231.56 293.37 248.99Z" id="d1832Sf6CJ"></path><path d="M423.26 248.99C423.26 266.41 409.11 280.56 391.69 280.56C374.26 280.56 360.11 266.41 360.11 248.99C360.11 231.56 374.26 217.42 391.69 217.42C409.11 217.42 423.26 231.56 423.26 248.99Z" id="bOmfsv22P"></path><path d="M279.45 244.58C279.45 250.04 275.27 254.47 270.12 254.47C264.98 254.47 260.8 250.04 260.8 244.58C260.8 239.13 264.98 234.7 270.12 234.7C275.27 234.7 279.45 239.13 279.45 244.58Z" id="bcwmROt0o"></path><path d="M439.27 334.94C439.27 345.92 427.21 354.83 412.36 354.83C397.51 354.83 385.45 345.92 385.45 334.94C385.45 323.97 397.51 315.06 412.36 315.06C427.21 315.06 439.27 323.97 439.27 334.94Z" id="c9qvGW09v"></path><path d="M263.09 334.94C263.09 345.92 251.03 354.83 236.18 354.83C221.33 354.83 209.27 345.92 209.27 334.94C209.27 323.97 221.33 315.06 236.18 315.06C251.03 315.06 263.09 323.97 263.09 334.94Z" id="h1zTPuHdp8"></path><path d="M293.37 451.24C293.37 476.04 268.45 496.18 237.75 496.18C207.06 496.18 182.13 476.04 182.13 451.24C182.13 426.43 207.06 406.29 237.75 406.29C268.45 406.29 293.37 426.43 293.37 451.24Z" id="b4iQPMw2hN"></path><path d="M464.94 451.24C464.94 476.04 439.27 496.18 407.64 496.18C376.01 496.18 350.34 476.04 350.34 451.24C350.34 426.43 376.01 406.29 407.64 406.29C439.27 406.29 464.94 426.43 464.94 451.24Z" id="b1cTQhd6ke"></path><path d="M339.33 300.22C339.33 304.32 334.59 307.64 328.76 307.64C322.93 307.64 318.2 304.32 318.2 300.22C318.2 296.13 322.93 292.81 328.76 292.81C334.59 292.81 339.33 296.13 339.33 300.22Z" id="bVfsK9w4M"></path><path d="M249.31 236.19C249.31 238.19 247.48 239.82 245.22 239.82C242.96 239.82 241.12 238.19 241.12 236.19C241.12 234.19 242.96 232.56 245.22 232.56C247.48 232.56 249.31 234.19 249.31 236.19Z" id="bEpVMbuJ9"></path><path d="M389.34 244.58C389.34 250.04 385.16 254.47 380.01 254.47C374.86 254.47 370.69 250.04 370.69 244.58C370.69 239.13 374.86 234.7 380.01 234.7C385.16 234.7 389.34 239.13 389.34 244.58Z" id="jqaeWL7Fh"></path><path d="M407.64 233.11C407.64 235.12 405.81 236.74 403.54 236.74C401.28 236.74 399.45 235.12 399.45 233.11C399.45 231.11 401.28 229.48 403.54 229.48C405.81 229.48 407.64 231.11 407.64 233.11Z" id="d7oZAnMcHZ"></path></defs><g><g><g><use xlink:href="#a31yqd2tZW" opacity="1" fill="#f8f3ef" fill-opacity="1"></use></g><g><use xlink:href="#bKKHyGSO8" opacity="1" fill="#f8f3ef" fill-opacity="1"></use></g><g><use xlink:href="#b2GrSgUvY7" opacity="1" fill="#f8f3ef" fill-opacity="1"></use></g><g><use xlink:href="#a69mN3vAdU" opacity="1" fill="#f8f3ef" fill-opacity="1"></use></g><g><use xlink:href="#agjgsuajt" opacity="1" fill="#f8f3ef" fill-opacity="1"></use></g><g><use xlink:href="#d2IKsMgtgg" opacity="1" fill="#f8f3ef" fill-opacity="1"></use></g><g><use xlink:href="#d52HQvboT4" opacity="1" fill="#f8f3ef" fill-opacity="1"></use></g><g><use xlink:href="#b1DyDjV1lC" opacity="1" fill="#f8f3ef" fill-opacity="1"></use></g><g><use xlink:href="#d5DRgGS48J" opacity="1" fill="#f8f3ef" fill-opacity="1"></use></g><g><use xlink:href="#bLrQoRcz0" opacity="1" fill="#f8f3ef" fill-opacity="1"></use></g><g><use xlink:href="#bB0QqNVpw" opacity="1" fill="#f8f3ef" fill-opacity="1"></use></g><g><use xlink:href="#egXN2Q34u" opacity="1" fill="#f8f3ef" fill-opacity="1"></use></g><g><use xlink:href="#bxJuf6Jld" opacity="1" fill="#f8f3ef" fill-opacity="1"></use></g><g><use xlink:href="#b1qfgoMYIc" opacity="1" fill="#f8f3ef" fill-opacity="1"></use></g><g><use xlink:href="#aMvaDM69T" opacity="1" fill="#f8f3ef" fill-opacity="1"></use></g><g><use xlink:href="#bjP87slN1" opacity="1" fill="#f8f3ef" fill-opacity="1"></use></g><g><use xlink:href="#bcrrgpG31" opacity="1" fill="#f8f3ef" fill-opacity="1"></use></g><g><use xlink:href="#aodjxAzce" opacity="1" fill="#f8f3ef" fill-opacity="1"></use></g><g><use xlink:href="#d1832Sf6CJ" opacity="1" fill="#000000" fill-opacity="1"></use></g><g><use xlink:href="#bOmfsv22P" opacity="1" fill="#000000" fill-opacity="1"></use></g><g><use xlink:href="#bcwmROt0o" opacity="1" fill="#ffffff" fill-opacity="1"></use><g><use xlink:href="#bcwmROt0o" opacity="1" fill-opacity="0" stroke="#ffffff" stroke-width="6" stroke-opacity="1"></use></g></g><g><use xlink:href="#c9qvGW09v" opacity="1" fill="#e4959e" fill-opacity="1"></use></g><g><use xlink:href="#h1zTPuHdp8" opacity="1" fill="#e4959e" fill-opacity="1"></use></g><g><use xlink:href="#b4iQPMw2hN" opacity="1" fill="#ede8e4" fill-opacity="1"></use></g><g><use xlink:href="#b1cTQhd6ke" opacity="1" fill="#ede8e4" fill-opacity="1"></use></g><g><use xlink:href="#bVfsK9w4M" opacity="1" fill="#000000" fill-opacity="1"></use></g><g><use xlink:href="#bEpVMbuJ9" opacity="1" fill="#ffffff" fill-opacity="1"></use><g><use xlink:href="#bEpVMbuJ9" opacity="1" fill-opacity="0" stroke="#ffffff" stroke-width="6" stroke-opacity="1"></use></g></g><g><use xlink:href="#jqaeWL7Fh" opacity="1" fill="#ffffff" fill-opacity="1"></use><g><use xlink:href="#jqaeWL7Fh" opacity="1" fill-opacity="0" stroke="#ffffff" stroke-width="6" stroke-opacity="1"></use></g></g><g><use xlink:href="#d7oZAnMcHZ" opacity="1" fill="#ffffff" fill-opacity="1"></use><g><use xlink:href="#d7oZAnMcHZ" opacity="1" fill-opacity="0" stroke="#ffffff" stroke-width="6" stroke-opacity="1"></use></g></g></g></g></svg>